<?xml version="1.0" encoding="UTF-8" standalone="no"?>
<svg
   xmlns:dc="http://purl.org/dc/elements/1.1/"
   xmlns:cc="http://creativecommons.org/ns#"
   xmlns:rdf="http://www.w3.org/1999/02/22-rdf-syntax-ns#"
   xmlns:svg="http://www.w3.org/2000/svg"
   xmlns="http://www.w3.org/2000/svg"
   xmlns:sodipodi="http://sodipodi.sourceforge.net/DTD/sodipodi-0.dtd"
   xmlns:inkscape="http://www.inkscape.org/namespaces/inkscape"
   width="160"
   height="154.55675"
   viewBox="0 0 42.333335 40.89314"
   version="1.1"
   id="svg16758"
   inkscape:version="1.0 (4035a4fb49, 2020-05-01)"
   sodipodi:docname="icon.svg">
  <defs
     id="defs16752">
    <rect
       x="160.1416"
       y="3.7544284"
       width="33.577824"
       height="31.447418"
       id="rect17688" />
    <rect
       x="162.03775"
       y="74.066238"
       width="45.656151"
       height="50.880661"
       id="rect17682" />
    <rect
       id="rect17682-0"
       height="50.880661"
       width="45.656151"
       y="74.066238"
       x="162.03775" />
    <rect
       id="rect17701"
       height="50.880661"
       width="45.656151"
       y="74.066238"
       x="162.03775" />
    <rect
       id="rect17870"
       height="50.880661"
       width="45.656151"
       y="74.066238"
       x="162.03775" />
    <rect
       id="rect17682-7"
       height="50.880661"
       width="45.656151"
       y="74.066238"
       x="162.03775" />
    <rect
       id="rect17884"
       height="50.880661"
       width="45.656151"
       y="74.066238"
       x="162.03775" />
  </defs>
  <sodipodi:namedview
     id="base"
     pagecolor="#ffffff"
     bordercolor="#666666"
     borderopacity="1.0"
     inkscape:pageopacity="0.0"
     inkscape:pageshadow="2"
     inkscape:zoom="0.98994949"
     inkscape:cx="327.19665"
     inkscape:cy="112.04403"
     inkscape:document-units="mm"
     inkscape:current-layer="layer1"
     inkscape:document-rotation="0"
     showgrid="true"
     inkscape:snap-global="true"
     inkscape:snap-bbox="true"
     inkscape:snap-nodes="true"
     inkscape:bbox-paths="false"
     inkscape:snap-grids="false"
     inkscape:snap-to-guides="false"
     inkscape:window-width="1920"
     inkscape:window-height="1018"
     inkscape:window-x="0"
     inkscape:window-y="0"
     inkscape:window-maximized="1"
     fit-margin-top="5"
     fit-margin-bottom="5"
     fit-margin-left="5"
     fit-margin-right="5"
     units="px"
     lock-margins="true">
    <inkscape:grid
       type="xygrid"
       id="grid16760"
       originx="-72.123774"
       originy="-12.213209" />
  </sodipodi:namedview>
  <metadata
     id="metadata16755">
    <rdf:RDF>
      <cc:Work
         rdf:about="">
        <dc:format>image/svg+xml</dc:format>
        <dc:type
           rdf:resource="http://purl.org/dc/dcmitype/StillImage" />
        <dc:title></dc:title>
      </cc:Work>
    </rdf:RDF>
  </metadata>
  <g
     inkscape:label="Ebene 1"
     inkscape:groupmode="layer"
     id="layer1"
     transform="translate(-72.123762,-12.213207)">
    <path
       id="rect17726"
       style="font-style:normal;font-weight:normal;font-size:25.4px;line-height:1.25;font-family:sans-serif;white-space:pre;fill:#4b9715;fill-opacity:1;stroke:none;stroke-width:0.166159;stroke-opacity:1"
       d="m 80.636401,13.536124 16.710792,9.647974 c -0.250824,-0.834344 -0.559472,-1.622617 -0.926943,-2.36406 -1.157648,-2.346027 -2.822275,-4.143921 -4.994143,-5.393769 -2.171866,-1.260093 -4.784334,-1.890145 -7.837242,-1.890145 z" />
    <path
       id="rect17726-3"
       style="font-style:normal;font-weight:normal;font-size:25.4px;line-height:1.25;font-family:sans-serif;white-space:pre;shape-inside:url(#rect17682-0);fill:#498e15;fill-opacity:1;stroke:none;stroke-width:0.166158;stroke-opacity:1"
       d="m 73.446679,13.536124 v 2.261986 l 24.695237,14.257664 c 0.0092,-0.278765 0.01482,-0.559673 0.01482,-0.845362 0,-2.223687 -0.270136,-4.232201 -0.809495,-6.026314 l -16.71084,-9.647974 z" />
    <path
       id="rect17743"
       style="font-style:normal;font-weight:normal;font-size:25.4px;line-height:1.25;font-family:sans-serif;white-space:pre;shape-inside:url(#rect17682-0);fill:#478415;fill-opacity:1;stroke:none;stroke-width:0.166158;stroke-opacity:1"
       d="m 73.446679,15.79811 v 6.412737 l 23.697943,13.681872 c 0.596896,-1.739171 0.928828,-3.685224 0.997294,-5.836945 z" />
    <path
       id="rect17745"
       style="font-style:normal;font-weight:normal;font-size:25.4px;line-height:1.25;font-family:sans-serif;white-space:pre;shape-inside:url(#rect17682-0);fill:#447a15;fill-opacity:1;stroke:none;stroke-width:0.166158;stroke-opacity:1"
       d="m 73.446679,22.210847 v 6.412934 l 20.906669,12.070361 c 0.806178,-0.880877 1.490887,-1.885374 2.051531,-3.016505 0.280524,-0.56843 0.526599,-1.163885 0.739743,-1.784918 z" />
    <path
       id="rect17747"
       style="font-style:normal;font-weight:normal;font-size:25.4px;line-height:1.25;font-family:sans-serif;white-space:pre;shape-inside:url(#rect17682-0);fill:#417015;fill-opacity:1;stroke:none;stroke-width:0.166158;stroke-opacity:1"
       d="m 73.446679,28.623781 v 6.412736 l 15.683944,9.055235 c 0.768523,-0.26672 1.493118,-0.590902 2.172522,-0.974235 1.161221,-0.660512 2.177023,-1.469285 3.050203,-2.423375 z" />
    <path
       id="rect17749"
       style="font-style:normal;font-weight:normal;font-size:25.4px;line-height:1.25;font-family:sans-serif;white-space:pre;shape-inside:url(#rect17682-0);fill:#3d6515;fill-opacity:1;stroke:none;stroke-width:0.166158;stroke-opacity:1"
       d="m 73.446679,35.036517 v 6.412738 l 6.163266,3.558406 h 3.548554 c 2.223968,0 4.214354,-0.305868 5.972124,-0.915909 z" />
    <path
       id="rect17751"
       style="font-style:normal;font-weight:normal;font-size:25.4px;line-height:1.25;font-family:sans-serif;white-space:pre;shape-inside:url(#rect17682-0);fill:#395c14;fill-opacity:1;stroke:none;stroke-width:0.166158;stroke-opacity:1"
       d="m 73.446679,41.449255 v 3.558406 h 6.163266 z" />
    <path
       d="m 80.636401,13.536124 16.710792,9.647974 c -0.250824,-0.834344 -0.559472,-1.622617 -0.926943,-2.36406 -1.157648,-2.346027 -2.822275,-4.143921 -4.994143,-5.393769 -2.171866,-1.260093 -4.784334,-1.890145 -7.837242,-1.890145 z"
       style="font-style:normal;font-weight:normal;font-size:25.4px;line-height:1.25;font-family:sans-serif;white-space:pre;fill:#4b9715;fill-opacity:1;stroke:none;stroke-width:0.166159;stroke-opacity:1"
       id="path17852" />
    <path
       d="m 73.446679,13.536124 v 2.261986 l 24.695237,14.257664 c 0.0092,-0.278765 0.01482,-0.559673 0.01482,-0.845362 0,-2.223687 -0.270136,-4.232201 -0.809495,-6.026314 l -16.71084,-9.647974 z"
       style="font-style:normal;font-weight:normal;font-size:25.4px;line-height:1.25;font-family:sans-serif;white-space:pre;shape-inside:url(#rect17682-0);fill:#498e15;fill-opacity:1;stroke:none;stroke-width:0.166158;stroke-opacity:1"
       id="path17854" />
    <path
       d="m 73.446679,15.79811 v 6.412737 l 23.697943,13.681872 c 0.596896,-1.739171 0.928828,-3.685224 0.997294,-5.836945 z"
       style="font-style:normal;font-weight:normal;font-size:25.4px;line-height:1.25;font-family:sans-serif;white-space:pre;shape-inside:url(#rect17682-0);fill:#478415;fill-opacity:1;stroke:none;stroke-width:0.166158;stroke-opacity:1"
       id="path17856" />
    <path
       d="m 73.446679,22.210847 v 6.412934 l 20.906669,12.070361 c 0.806178,-0.880877 1.490887,-1.885374 2.051531,-3.016505 0.280524,-0.56843 0.526599,-1.163885 0.739743,-1.784918 z"
       style="font-style:normal;font-weight:normal;font-size:25.4px;line-height:1.25;font-family:sans-serif;white-space:pre;shape-inside:url(#rect17682-0);fill:#447a15;fill-opacity:1;stroke:none;stroke-width:0.166158;stroke-opacity:1"
       id="path17858" />
    <path
       d="m 73.446679,28.623781 v 6.412736 l 15.683944,9.055235 c 0.768523,-0.26672 1.493118,-0.590902 2.172522,-0.974235 1.161221,-0.660512 2.177023,-1.469285 3.050203,-2.423375 z"
       style="font-style:normal;font-weight:normal;font-size:25.4px;line-height:1.25;font-family:sans-serif;white-space:pre;shape-inside:url(#rect17682-0);fill:#417015;fill-opacity:1;stroke:none;stroke-width:0.166158;stroke-opacity:1"
       id="path17860" />
    <path
       d="m 73.446679,35.036517 v 6.412738 l 6.163266,3.558406 h 3.548554 c 2.223968,0 4.214354,-0.305868 5.972124,-0.915909 z"
       style="font-style:normal;font-weight:normal;font-size:25.4px;line-height:1.25;font-family:sans-serif;white-space:pre;shape-inside:url(#rect17682-0);fill:#3d6515;fill-opacity:1;stroke:none;stroke-width:0.166158;stroke-opacity:1"
       id="path17862" />
    <path
       d="m 73.446679,41.449255 v 3.558406 h 6.163266 z"
       style="font-style:normal;font-weight:normal;font-size:25.4px;line-height:1.25;font-family:sans-serif;white-space:pre;shape-inside:url(#rect17682-0);fill:#395c14;fill-opacity:1;stroke:none;stroke-width:0.166158;stroke-opacity:1"
       id="path17864" />
    <text
       xml:space="preserve"
       id="text17680"
       style="font-style:normal;font-weight:normal;font-size:25.4px;line-height:1.25;font-family:sans-serif;white-space:pre;shape-inside:url(#rect17682);fill:#000000;fill-opacity:1;stroke:#ffffff;stroke-width:0;stroke-miterlimit:4;stroke-dasharray:none;stroke-opacity:1;"
       transform="matrix(0.65295507,0,0,0.65295507,-12.999601,-12.092479)"><tspan
         x="162.03711"
         y="97.573331"><tspan
           style="font-style:normal;font-variant:normal;font-weight:900;font-stretch:normal;font-size:25.4px;font-family:Inter;-inkscape-font-specification:'Inter Heavy';stroke:#ffffff;stroke-width:0;stroke-miterlimit:4;stroke-dasharray:none;stroke-opacity:1">JS</tspan></tspan></text>
  </g>
</svg>
