<svg width="400" height="200" style="margin: 1rem;"><defs><marker id="arrow" markerWidth="10" markerHeight="10" refX="0" refY="3" orient="auto" markerUnits="strokeWidth"><path d="M0,0 L0,6 L9,3 z" fill="#000"></path></marker></defs><text text-anchor="end" x="380" y="25" font-family="Courier Prime">LDA-druid</text><line x1="45" x2="365" y1="87.5" y2="87.5" stroke="lightslategray"></line><path d="M49.18276926627231,142.66286401033307C49.18276926627231,142.66286401033307,51.987145151050264,132.25395978434716,52.92438387415046,132.31656872354C53.73221890037585,132.37053330352185,53.251391973686545,138.8627724702877,54.65704425301564,140.30452402145463C55.743244628249464,141.41861966153638,57.85760337549032,141.31356315858795,59.399076940828465,141.45972665933166C60.82697300614366,141.59512066951623,62.06029421295522,141.24918047651636,63.58184620710077,141.25092189723597C65.40938358220528,141.25301351912145,67.60336000244915,141.6631156670961,69.61538461538461,141.56596428422614C71.64879844082992,141.4677801149974,73.5325280319017,141.0284887773857,75.71821571553441,140.65195174493178C78.27624014630352,140.21127079343117,81.27391660984004,139.86813663761032,84.01446155621308,139.03459830279533C86.87875550040901,138.16342163852448,89.53832324214844,135.9840389425452,92.52584215539413,135.45623865692636C95.57858226295313,134.91691584509545,98.94160484874422,136.2586742506093,102.15515310491969,135.92128459647293C105.48232265093236,135.57196587059877,108.73188323302563,134.05104036023343,112.14881118924798,133.28980717951103C115.68378239693003,132.50227597877685,119.48234286292512,132.56397269733048,123.02892311242616,131.29943560168903C126.8307535020493,129.94388878734816,130.30179563341963,126.49033308295867,134.15819863277235,125.16065391142259C137.84306675492797,123.89011958378359,141.78064100303632,123.97718482726874,145.6144699384699,123.31180486043209C149.4946587417992,122.63837890931119,153.41654000874362,122.0850171175114,157.3013519808264,121.14065244532406C161.26874855030334,120.17621216154821,165.47288478200642,119.8071334210928,169.1697013995927,117.55694731022875C173.52547365414014,114.90566669689153,176.73971351866373,107.53251476178527,181.1570821050169,105.20665236944787C184.88537893253138,103.24360463886539,189.2725678361867,104.28850022959331,193.24290001300815,103.14475981955538C197.3532076783002,101.96069643011708,201.2753299868309,99.40441974549502,205.38645755776105,98.12498662715514C209.39224942795857,96.8783352655804,213.5124549019732,96.344182155242,217.58405551811092,95.50673833808867C221.65272818806642,94.66989673875051,225.7134539097892,93.65143688324883,229.80725268181405,93.10197809983032C233.87287729687847,92.55630077682774,237.98660956800845,92.68970543275597,242.06152736477236,92.21095474218885C246.15928303217999,91.72952089409881,250.22528034591656,90.70980860855613,254.32494124297233,90.21529589099443C258.40745494019006,89.72285151727954,262.5184084727654,89.14464343940868,266.6077542303275,89.24580844581142C270.70826771249375,89.34724972695297,274.81624627191877,91.03138645078326,278.89443814902063,90.83007710424744C283.01015242232245,90.62691556210947,287.0862169978534,88.90067313601679,291.18850940043836,87.99194446909745C295.28319511486524,87.08490081507125,299.3960347696413,86.34016180557889,303.4853250531196,85.38234537153753C307.59548591211427,84.41964051460819,311.68461562244283,83.26716704234563,315.7865666218154,82.22768049051079C319.8856609025774,81.18891786750359,323.98709860049445,80.17033884136892,328.0884544726914,79.14754743581618C332.18933801681516,78.12487381889459,336.29424251509124,77.13092494170917,340.3932843687458,76.0912827148568C344.4974617995446,75.05033794876503,352.69809300885794,72.90562934372198,352.69809300885794,72.90562934372198" fill="none" stroke="#4e79a7"></path><path d="M49.18276926627231,140.52406535632176C49.18276926627231,140.52406535632176,52.00145744677616,124.89164049255811,52.92438387415046,124.94248571182536C53.781841287162564,124.98972415779872,52.786066933398736,136.46711240496256,54.65704425301564,138.66524902246795C55.77550524770603,139.97928422850873,57.89067563659056,140.18367226804224,59.399076940828465,140.05997386913566C60.861247111525095,139.94006671409946,62.03826428151825,138.1390011989613,63.58184620710077,138.0410151770259C65.38847056312576,137.92633131681444,67.57229879977663,139.80252114156596,69.61538461538461,140.05997386913566C71.61897690102357,140.3124499496482,73.53695354280026,139.90382827288332,75.71821571553441,139.61853020120856C78.28076786758088,139.2833613266535,81.28489594597171,138.91838080364616,84.01446155621308,138.0410151770259C86.8914141293535,137.11627488588968,89.53024136146834,134.56919851718925,92.52584215539413,134.0952502491697C95.57176908786113,133.6133396430956,98.9484579363763,135.56134924541175,102.15515310491969,135.2589546995712C105.48969771194606,134.9445038244402,108.72199841023452,132.9662846175571,112.14881118924798,132.07629146323129C115.67433518513685,131.16066156918848,119.54324188169154,131.41097935798314,123.02892311242616,129.8720472318706C126.9138605550951,128.15684304574353,130.24036658388385,123.63439050671332,134.15819863277235,121.72955412134536C137.79742328273483,119.96017568927523,141.74124988403165,118.93244692212112,145.6144699384699,118.51636039332949C149.45650773666438,118.10362366562795,153.41565498928122,119.55057231519392,157.3013519808264,119.21157339171883C161.26781591889292,118.86552813704947,165.59255657685344,118.77862293479564,169.1697013995927,116.38930913638565C173.80063761573663,113.29612718567104,176.47299170719606,101.83113422590046,181.1570821050169,99.82656707888461C184.77505351706176,98.27824797838188,189.2575675723162,101.87856300875887,193.24290001300815,101.47511635569411C197.33640710195687,101.0607188721942,201.29592099506158,98.35176867614182,205.38645755776105,97.21572960862542C209.4110055474855,96.0980171336624,213.51493083432837,95.51884506306334,217.58405551811092,94.68661788805878C221.65519265160233,93.85397912199565,225.74496455990268,93.17239511344646,229.80725268181405,92.22116387108281C233.9043301659785,91.26178630150557,237.94117950397367,89.39887272819178,242.06152736477236,88.94811322228318C246.11489012335556,88.50468178007165,250.26648753649727,89.8988062659404,254.32494124297233,89.47664612584735C258.4495274989624,89.04760688144827,262.51476271761146,86.32316221520833,266.6077542303275,86.33553891835051C270.7045974288608,86.34792726851707,274.7843156173823,89.4366904551297,278.89443814902063,89.55692582372794C282.97808764583624,89.67638676405174,287.09199233181545,87.93055788496423,291.18850940043836,87.09136008991355C295.2889575262219,86.25135699259116,299.39049551554484,85.41844035609536,303.4853250531196,84.5192232462302C307.5898674387725,83.61787321261396,311.6964943907073,82.71774152136966,315.7865666218154,81.68906251793746C319.8976440252216,80.65510058098096,323.9783520298506,79.37395239681162,328.0884544726914,78.3286654951971C332.1806735364049,77.2879267191387,336.2894884274835,76.37611419612284,340.3932843687458,75.42903578544149C344.4927059306047,74.48296689871125,352.69809300885794,72.64909917988514,352.69809300885794,72.64909917988514L352.69809300885794,73.39336347715488C352.69809300885794,73.39336347715488,344.49994513990964,75.62500368776237,340.3932843687458,76.67982235323713C336.29670748575643,77.73205091593502,332.1901650346496,78.70630084221271,328.0884544726914,79.71510358117258C323.98792572771174,80.72361565598469,319.8662447846433,81.57312613900864,315.7865666218154,82.73177190693933C311.66476678100133,83.9023804086909,307.6200679397286,85.66959671516979,303.4853250531196,86.71239902801514C299.4195793822379,87.73779990669316,295.28328991228653,88.1725101782032,291.18850940043836,88.9645864806248C287.0863125354299,89.75809736972859,283.0022571966799,90.75649900860452,278.89443814902063,91.46961033039099C274.8085677443791,92.17891140015512,270.69460322409475,93.33538507373298,266.6077542303275,93.23572107800315C262.50470169998124,93.13566193451945,258.40203102204987,90.71746404285588,254.32494124297233,90.85403301378024C250.21971746375272,90.99154438029939,246.18345896255386,93.60322332191724,242.06152736477236,94.0966191080627C238.00974442042363,94.58161809062554,233.86369591976202,93.42994507244661,229.80725268181405,93.84869327388591C225.70387968474586,94.27228605247636,221.64473890951888,95.62822637340902,217.58405551811092,96.65864744020699C213.5043450324024,97.69389673834371,209.41120456564923,98.69011512423519,205.38645755776105,100.04834679759098C201.29613524322966,101.42870817457738,197.32135783120174,103.50227759186578,193.24290001300815,104.89692973596718C189.2437210722628,106.26447201125451,184.97079139585796,106.31982890815314,181.1570821050169,108.36051753593873C176.8925872662709,110.6424182937073,173.3750161504418,116.02016886591872,169.1697013995927,118.53031231274554C165.3834305207981,120.79032936198027,161.2535718892499,121.69518815375058,157.3013519808264,123.17079735201838C153.40193148521482,124.62669324965674,149.53576043935328,126.31124636018387,145.6144699384699,127.33049815224382C141.81974607760068,128.31685177605522,137.93454503493504,128.47350603519126,134.15819863277235,129.2576001083804C130.40658309303058,130.03655923880103,126.72856817617546,131.2027240794608,123.02892311242616,132.01410708394044C119.39244811305947,132.81163602519274,115.68779475835528,133.31486386088108,112.14881118924798,134.0952502491697C108.73601550698658,134.8478107639163,105.47935256305603,136.0923527374644,102.15515310491969,136.59473583587072C98.93881103219121,137.08081855033515,95.60031026477859,136.54659320469398,92.52584215539413,137.12399793612906C89.56306519638076,137.68042635673922,86.8590806960348,139.20109978167974,84.01446155621308,139.91041975653368C81.25609110644795,140.59823319021106,78.27646456764424,140.98052796527656,75.71821571553441,141.35472189264357C73.53274898322528,141.67438914433336,71.64312203492312,141.82633711279593,69.61538461538461,142.07893269290824C67.59773040872672,142.33027220555223,65.4107505043384,142.6549024557764,63.58184620710077,142.86619407887034C62.06165629159135,143.04182021477263,60.83344362684778,143.33844990982493,59.399076940828465,143.28709809820188C57.86432065768003,143.23215223511974,55.73839611589267,143.319590242499,54.65704425301564,142.46400321553148C53.62213310553444,141.6451610030687,53.68085376691984,138.4679312910086,52.92438387415046,138.41036443018476C51.964970713980385,138.33735372031782,49.18276926627231,144.4339217528515,49.18276926627231,144.4339217528515Z" fill="#4e79a7" opacity=".4"></path><g transform="translate(45, 0)"></g><g transform="translate(0, 150)"></g><line x1="45" x2="365" y1="87.5" y2="87.5" stroke="lightslategray"></line><path d="M49.18276926627231,131.61407208272558C49.18276926627231,131.61407208272558,51.982336234762826,131.47452506778637,52.92438387415046,131.96466536894727C53.71911854653691,132.37815984139212,53.845831122775316,133.8148831390893,54.65704425301564,134.0021330821474C55.785539666405796,134.26262036227314,57.84244297067064,132.423347464916,59.399076940828465,131.92776069719193C60.81317537139639,131.4775530800616,62.0580426334437,131.08299577095406,63.58184620710077,131.0620655426081C65.40714372645947,131.03699413935118,67.64770327988447,132.4363458935231,69.61538461538461,132.13890637005022C71.69840885624757,131.8240313308827,73.46298143930818,129.73330330357,75.71821571553441,128.98749643075536C78.21319791384308,128.1624048246795,81.52970217616188,129.22443920850318,84.01446155621308,127.63086767136332C87.36054214034591,125.48489779489954,89.31717673329531,115.44766493343829,92.52584215539413,114.98357059221371C95.43103084065247,114.56337046173824,98.69197229849209,122.06159443233673,102.15515310491969,122.9496587587347C105.28005036882573,123.75097695112682,108.73646716253243,121.5521833878396,112.14881118924798,121.03690909719336C115.68823559691111,120.50244528385093,119.41106679776593,120.53726405143618,123.02892311242616,119.82828306063877C126.74803144330389,119.09946000079974,130.45846672362433,117.9550006854131,134.15819863277235,116.67137626555149C137.98769802999308,115.34272893033152,141.70895052228673,113.01861912005361,145.6144699384699,111.9419325280997C149.42740000958224,110.89077127497326,153.40041002873693,110.90573085850295,157.3013519808264,110.2175827289469C161.2520174998336,109.52066308215484,165.23232886160406,108.817063417597,169.1697013995927,107.77800387426649C173.18498806603745,106.71838305105922,177.14269007793564,105.12028161249847,181.1570821050169,103.89445912467149C185.16712984762452,102.66996319428218,189.19858244397088,101.4988301223138,193.24290001300815,100.42660283657791C197.2751346687844,99.35757896626836,201.33485013545118,98.46229946701055,205.38645755776105,97.46920706736313C209.44854917913113,96.4735448781685,213.5094218542491,95.4049920676107,217.58405551811092,94.46022567995335C221.64972542904954,93.51753767606434,225.73362211496658,92.72193397149695,229.80725268181405,91.80607617413884C233.89278389384344,90.8875428031113,237.9773871823756,89.91857330350973,242.06152736477236,88.95650552310163C246.14995133328952,87.99342864593866,250.25163084725196,87.12993884316454,254.32494124297233,86.03056531429561C258.433961720443,84.92155374786607,262.5030121961668,83.4855071522455,266.6077542303275,82.3247959367968C270.69294401467,81.16961357443132,274.7914680697474,80.10621596154647,278.89443814902063,79.0807591524496C282.98509751888844,78.05837916344666,287.0916553865927,77.15919932302113,291.18850940043836,76.18028090674875C295.2886195480852,75.20058445705536,299.3860949050408,74.19741009290586,303.4853250531196,73.20485686652287C307.58544718525087,72.2120876625984,311.69257518890976,71.27019566798612,315.7865666218154,70.22431264277967C319.89365950015974,69.17508262000018,324.0824741402775,68.5306032307697,328.0884544726914,66.91851059095325C332.2943982579092,65.22594835724264,336.1954029412338,61.90721386538713,340.3932843687458,60.15374345798756C344.40688271409977,58.47724876720321,352.69809300885794,56.499434738268576,352.69809300885794,56.499434738268576" fill="none" stroke="#f28e2c"></path><path d="M49.18276926627231,128.81180540664434C49.18276926627231,128.81180540664434,51.97339733210409,129.96216852878476,52.92438387415046,130.7441814554612C53.697926150941875,131.3802788480488,53.82287151210933,132.68213203704275,54.65704425301564,132.92616793887737C55.77598676394621,133.25351278169657,57.928586051458744,132.09259852314608,59.399076940828465,131.29943570168612C60.90960126655171,130.48467938817498,62.02421706622394,128.1561950955563,63.58184620710077,128.06086572716825C65.37621734813497,127.95104737372355,67.59551000600757,131.63971573396492,69.61538461538461,131.64971688280963C71.64091772326262,131.65974604898054,73.46774846490281,129.0979188368116,75.71821571553441,128.1009891540666C78.2170821884336,126.99402163016671,81.63174010322437,127.66153377508782,84.01446155621308,125.46798953997492C87.83602178865567,121.94984376322195,89.4116494300135,104.92453159334492,92.52584215539413,104.7587457943762C95.48538188678305,104.60119303441076,98.12888895938346,120.94864631202876,102.15515310491969,122.54034722694418C105.06105722898832,123.6891367960698,108.7065366935651,119.98457085297255,112.14881118924798,119.21157339171883C115.65997079441031,118.42310708426686,119.39727292227215,118.52058580677148,123.02892311242616,117.89677480106585C126.73353466397171,117.26043117304137,130.46789019862064,116.55428176604538,134.15819863277235,115.40851878521586C137.9980137052151,114.21633714464589,141.71116126387915,111.83607240233694,145.6144699384699,110.80448631660428C149.4293339910426,109.79627482126098,153.4048550126942,109.91250164908494,157.3013519808264,109.22150399989638C161.25657242372654,108.52009243704417,165.22001650151137,107.61632541974603,169.1697013995927,106.61237764256857C173.17209936194823,105.59503103356735,177.14855733846818,104.27060502054653,181.1570821050169,103.14679967195258C185.17291044128484,102.02094673947371,189.2134354275727,100.98870196571194,193.24290001300815,99.8637462397614C197.28988642832752,98.73389872671629,201.31472506567647,97.38106187918154,205.38645755776105,96.38158972825939C209.4287872068832,95.38933497748717,213.5274985098088,94.81716126822829,217.58405551811092,93.88160438084073C221.66788916077573,92.93975672936662,225.72293654127944,91.72874761555356,229.80725268181405,90.74523788912906C233.8821395608287,89.76399874365342,237.97090679964856,88.85724707818974,242.06152736477236,87.98650068854573C246.14349443008692,87.11759631861403,250.26112947217186,86.55489949382712,254.32494124297233,85.52566644772503C258.4438602148112,84.48247651690836,262.50872717245494,82.9791180799508,266.6077542303275,81.75211531954685C270.6985784906805,80.52756798455421,274.7738521835253,79.15435382912285,278.89443814902063,78.17064614656567C282.96800508281444,77.19816331967186,287.1008423135119,76.73824713594982,291.18850940043836,75.86924040469323C295.29791506309476,74.99561221864704,299.39303822267726,73.97349444257591,303.4853250531196,72.93948218178464C307.5924389176958,71.90172352302062,311.68577485019716,70.74577532679542,315.7865666218154,69.65267699686268C319.8868180896331,68.55972268916145,324.1392734225431,68.20130134317509,328.0884544726914,66.38132228998695C332.367902910441,64.4091395976765,336.0819896829843,59.545000891148526,340.3932843687458,57.894825715355445C344.320866174136,56.39151905957143,352.69809300885794,56.31947093883278,352.69809300885794,56.31947093883278L352.69809300885794,56.62296092467755C352.69809300885794,56.62296092467755,344.641714681879,62.48545076705573,340.3932843687458,64.27893782842277C336.4200933487465,65.95623183149972,332.1849241027146,66.26742927239471,328.0884544726914,67.32059687531373C323.9826614286831,68.3761614489037,319.8971369471232,69.59437301972122,315.7865666218154,70.6056713845039C311.69599730139106,71.61204902492675,307.57112531140416,72.33701960829792,303.4853250531196,73.3760632962763C299.371572265822,74.42221548124381,295.2869195144801,75.70057245276999,291.18850940043836,76.8660195837671C287.0899571764666,78.0315071259494,283.00623537824134,79.31769629036455,278.89443814902063,80.3688677586217C274.8124513308549,81.41241826411945,270.6856184346185,82.08905483832756,266.6077542303275,83.1552324627922C262.49548626226994,84.2304051202662,258.4147593089741,85.56583771261084,254.32494124297233,86.7999026296391C250.23267836177826,88.03470524712463,246.16383552118674,89.42230585739937,242.06152736477236,90.56190386108693C237.99104847860593,91.6926598735222,233.89559682185924,92.65272067976693,229.80725268181405,93.6162698164204C225.7364089059846,94.57569443217895,221.6703102069577,95.58255579419179,217.58405551811092,96.33222372954503C213.52985986670728,97.07601008525153,209.41323015407372,97.19833190694412,205.38645755776105,98.10393093606262C201.29831088662652,99.02333265734778,197.3078280172461,100.7659493058687,193.24290001300815,101.83625471278465C189.2309275318111,102.8926168019893,185.13654709737892,103.32239217616899,181.1570821050169,104.4974301245399C177.11047535205392,105.69229338027702,173.18481157166283,107.6776268331654,169.1697013995927,108.9753570964422C165.23216235442905,110.24801547012467,161.2579679617294,111.28604598048534,157.3013519808264,112.23097175248775C153.40620874052328,113.16121649980927,149.476312547283,113.69819849245818,145.6144699384699,114.613843912769C141.76209352200624,115.52724489265321,137.95149510041915,116.70678313714517,134.15819863277235,117.7163283444339C130.42376351690132,118.71020823368421,126.7296896718222,119.76890986580564,123.02892311242616,120.6263932747677C119.39354212523602,121.46872656754383,115.7123319818897,122.30449167067219,112.14881118924798,122.82760309042874C108.76046794834788,123.32499910591709,105.43314216023637,123.18057502726309,102.15515310491969,123.74851279802208C98.89265437948244,124.31376674547609,95.60521450018804,125.21233751053171,92.52584215539413,126.21979641404718C89.56844277739167,127.18735018832744,86.86851393483971,128.73792562599942,84.01446155621308,129.63075820917888C81.26475677859551,130.49094775509138,78.28109354630375,131.05767502199456,75.71821571553441,131.53144324040161C73.5372692781199,131.93460842279543,71.638337751615,132.04248403354248,69.61538461538461,132.39379096755815C67.59288634059259,132.74501891013583,65.39693714666254,133.74231781815152,63.58184620710077,133.6389617293748C62.047462238795106,133.55158983952114,60.79628513039887,132.0928533660665,59.399076940828465,132.2654509723982C57.82215929235043,132.460248149756,55.77144517248168,135.50991151561507,54.65704425301564,135.2589546995712C53.81029140338091,135.06827072272895,53.77811464498708,132.90750249157298,52.92438387415046,132.52397726635425C52.00056437854784,132.10896577536016,49.18276926627231,133.13417250862324,49.18276926627231,133.13417250862324Z" fill="#f28e2c" opacity=".4"></path><g transform="translate(45, 0)"></g><g transform="translate(0, 150)"></g><line x1="45" x2="365" y1="87.5" y2="87.5" stroke="lightslategray"></line><path d="M49.18276926627231,119.63692306371189C49.18276926627231,119.63692306371189,51.922741092996525,119.19820123259956,52.92438387415046,119.30539658888344C53.62056255126323,119.37990131525342,53.92821484105894,119.77810114713502,54.65704425301564,119.84441393921739C55.83952034895633,119.95200192922727,57.867419135287975,119.44670764745142,59.399076940828465,119.27199302247178C60.836507260824696,119.10802682951136,62.08095898608963,119.15911629984315,63.58184620710077,118.82261419886841C65.43114319032483,118.40799788961506,67.57781864342047,117.26735915625818,69.61538461538461,116.7284028067768C71.62401915124698,116.19709910825304,73.51967957370846,115.88176250846479,75.71821571553441,115.59837470770428C78.2634768213593,115.27029461230865,81.25636550254994,115.47833501744095,84.01446155621308,114.9892331411577C86.85937568378633,114.4847355418762,89.57864974705207,113.18446111505645,92.52584215539413,112.5627001975485C95.61471054946803,111.91105029463596,98.92822751586542,111.81394289111437,102.15515310491969,111.224257943077C105.46828831884415,110.6188191399355,108.77317372111594,109.9152194711026,112.14881118924798,108.95401335655524C115.72564442170852,107.93551714473902,119.3323478131248,105.98902243847972,123.02892311242616,105.20985501793109C126.67086052079438,104.44220422049864,130.48073624901417,105.11378246570207,134.15819863277235,104.27228335021438C138.01243133691892,103.3903345841991,141.74883750285915,101.17896612854001,145.6144699384699,99.88328218079798C149.4636208165791,98.59312252690546,153.36421016589838,97.39913729170578,157.3013519808264,96.51048143542792C161.21641822471454,95.62680827634702,165.2127549963064,95.30765788221773,169.1697013995927,94.55839092319056C173.16464902039945,93.80192824964293,177.17881271737085,93.0458665243084,181.1570821050169,91.9875854531589C185.20382065606813,90.91109052755952,189.18873532042963,89.26516239522026,193.24290001300815,88.13309207527267C197.26558912788767,87.00981088206713,201.53845730557566,87.11779553705541,205.38645755776105,85.21444254410986C209.7039144290274,83.07888019502445,213.27755003950924,76.14987699152799,217.58405551811092,75.29369384804735C221.46320506850572,74.52247401038747,225.71003602212832,78.78930495296926,229.80725268181405,78.94544446099842C233.86958024805384,79.10025439181977,237.98269260458775,77.2280891409753,242.06152736477236,76.28052549485389C246.15529892152034,75.3294918465762,250.24502565732539,74.33344326326207,254.32494124297233,73.24834818284104C258.42718787540866,72.15731393321343,262.5038710973625,70.84384329598186,266.6077542303275,69.74968849888737C270.6937868367197,68.6602929112166,274.7941436757659,67.67858783033527,278.89443814902063,66.69582036365298C282.98774485136255,65.71472774104897,287.1053930348719,64.92372597731519,291.18850940043836,63.85774872484851C295.3025822361589,62.78368968140495,299.3732173227819,61.36676930851069,303.4853250531196,60.270234175050916C307.57272749379786,59.18028695705214,311.69728255888106,58.37425954146707,315.7865666218154,57.29473278400313C319.8984490504555,56.20924030244693,323.9788582494887,54.8793930625682,328.0884544726914,53.772260749593016C332.1811710085058,52.669675853523444,336.2893356872965,51.680565660523854,340.3932843687458,50.66393276409952C344.49255386269965,49.64845899911311,352.69809300885794,47.675807602988804,352.69809300885794,47.675807602988804" fill="none" stroke="#e15759"></path><path d="M49.18276926627231,117.76751832414523C49.18276926627231,117.76751832414523,51.96439408758941,116.76720830365092,52.92438387415046,117.04034661053913C53.679770375604626,117.25527076175592,53.861908487460106,118.41127982667655,54.65704425301564,118.64270876670084C55.793358670588496,118.97343975955143,57.87215985632502,118.10090659008208,59.399076940828465,117.78036118168035C60.84129500873438,117.47759662146085,62.05841364320401,117.13106406689666,63.58184620710077,116.7834885530245C65.40751112516486,116.36695785971207,67.59577659728933,115.88102421523483,69.61538461538461,115.46804400240444C71.6411813653599,115.05379828469084,73.51931101336478,114.59859158299275,75.71821571553441,114.30228034520925C78.26311884550738,113.9593444300069,81.26044014946189,114.17216292596336,84.01446155621308,113.64427519081718C86.86378449852428,113.098120164197,89.56965085934709,111.60620096964243,92.52584215539413,111.01497974154935C95.60632551804191,110.39890081620368,98.93238304358904,110.61456119267523,102.15515310491969,110.09583677500639C105.47259772196215,109.56187391250745,108.80575048601902,108.95326524818601,112.14881118924798,107.81894037071181C115.76168529521355,106.59306583794587,119.29143394381403,103.53234170649473,123.02892311242616,102.82613526554675C126.63552024829193,102.14466114954315,130.49200591861535,104.08097222569012,134.15819863277235,103.45810796889288C138.0254304711719,102.80108836498988,141.7327195597002,100.02496354547088,145.6144699384699,98.7047228149426C149.44863885384004,97.40066524403782,153.37119915213717,96.43631112162856,157.3013519808264,95.56589966041412C161.22309064719153,94.69735168483058,165.21975106535476,94.33325672323265,169.1697013995927,93.485587866837C173.17182507474408,92.62672248580581,177.15312029086854,91.45328196786888,181.1570821050169,90.43399311629307C185.17745274215113,89.41052706945091,189.20590234609395,88.35412792221881,193.24290001300815,87.35727166070188C197.28235062936335,86.35980969211968,201.60794265256888,86.56111476812222,205.38645755776105,84.45114315350206C209.82376848252736,81.97329131715347,213.2367849229657,73.04354424565267,217.58405551811092,72.2958255972466C221.43736619645196,71.63306670307621,225.64319357410247,77.58059166952026,229.80725268181405,78.0951389198767C233.8091962644593,78.58965377023468,237.9860632241165,76.5562706855153,242.06152736477236,75.64792592497884C246.15872547067593,74.73473706993506,250.24087202137642,73.67772738159807,254.32494124297233,72.62756699628632C258.4229732283614,71.573816284609,262.50572090251035,70.37206156823557,266.6077542303275,69.33530137991764C270.6956067807056,68.30212528375922,274.79416927682786,67.35281211816225,278.89443814902063,66.41650206882352C282.9877702484354,65.48177605464551,287.1096525756112,64.7752951980279,291.18850940043836,63.721821753855664C295.30698906849204,62.658114654785855,299.37081567199357,61.16065721523576,303.4853250531196,60.05586790303947C307.57039013800124,58.95898469599023,311.73114833894834,58.39268655316489,315.7865666218154,57.1117901555147C319.9342624461394,55.801748066300306,323.93567577406094,53.50915587088716,328.0884544726914,52.24169293060764C332.1404163458076,51.005000132290704,336.29067986397075,50.4365539386202,340.3932843687458,49.54811079588281C344.4938936764621,48.660099724807026,352.69809300885794,46.91230281588384,352.69809300885794,46.91230281588384L352.69809300885794,48.02778556391904C352.69809300885794,48.02778556391904,344.4886058814078,50.03006731639549,340.3932843687458,51.10546599863925C336.28535429869476,52.18417558723286,332.1982694315564,53.43023630943031,328.0884544726914,54.49102627532449C323.99596116510196,55.54734532609235,319.8864858060017,56.463787604114714,315.7865666218154,57.45850221358908C311.68544224860943,58.45350922373548,307.570379441992,59.345728089256696,303.4853250531196,60.46020093482426C299.37080465620926,61.58271261236306,295.3042622635784,63.067768940272735,291.18850940043836,64.17440329781185C287.1070211612875,65.27182466044688,282.9913161887416,66.10629317395241,278.89443814902063,67.07890603784888C274.7977312277442,68.05147827764114,270.6872534460417,68.9118261888002,266.6077542303275,70.00995749487726C262.4971754746745,71.11645488070583,258.4250424985735,72.52351487843352,254.32494124297233,73.69834942919725C250.24291558378178,74.8680046358753,246.14507558345522,75.90358145700064,242.06152736477236,77.04486860891676C237.9725013026285,78.1876867314563,233.91165782768275,80.36457798233938,229.80725268181405,80.55087289210806C225.7520324908962,80.73493534518231,221.51314674531184,77.47411858831993,217.58405551811092,78.22615083160048C213.34940192116466,79.03666803771182,209.59972176477552,84.17352823563144,205.38645755776105,85.97871970154672C201.46621394259594,87.65836521407431,197.26658640690292,87.84882132535999,193.24290001300815,88.99442086452655C189.18977299010254,90.14840256068199,185.19265846449142,91.69811873723239,181.1570821050169,92.88364814829832C177.16809890115474,94.05548990946933,173.17809224182582,95.23391323471135,169.1697013995927,96.07417107585091C165.22578023808015,96.90091447768721,161.2177109816125,97.06358165061826,157.3013519808264,97.90602269512965C153.36557187128375,98.75264137992968,149.48340826174703,100.02055939643462,145.6144699384699,101.14826501184247C141.76935143234553,102.26902770407182,137.96416449510366,103.60406702614016,134.15819863277235,104.64969831891094C130.43620710796725,105.67225893835382,126.72157562115866,106.50180964256549,123.02892311242616,107.36874958687065C119.38556681506267,108.22411604717273,115.69844916952539,109.01989400496821,112.14881118924798,109.81975319634338C108.74680288973467,110.58634619050774,105.44628918573616,111.251948606685,102.15515310491969,112.07229481463716C98.90632339671214,112.88209576663827,95.63851884628954,113.86958128144533,92.52584215539413,114.70486882033453C89.60310997298173,115.48918470467302,86.85698952029337,116.62032889495323,84.01446155621308,116.9460978261931C81.25413949151438,117.26244552101191,78.26555026917029,116.55151352543899,75.71821571553441,116.70326684912472C73.52180536185482,116.8341144328757,71.60088460362567,117.01383510629226,69.61538461538461,117.61480917020683C67.55150082908186,118.23950855768989,65.43468413155995,119.75154257352303,63.58184620710077,120.45205643326686C62.08412792618472,121.01830801950835,60.84457919871724,121.6115286579527,59.399076940828465,121.67009415962795C57.87534229592443,121.7318292993773,55.847356789362216,120.95043834269919,54.65704425301564,120.69707960923748C53.93641144890693,120.5436924869777,53.61664522750686,120.38720556860626,52.92438387415046,120.31496590934825C51.91908383125962,120.21005967386596,49.18276926627231,120.34904431039249,49.18276926627231,120.34904431039249Z" fill="#e15759" opacity=".4"></path><g transform="translate(45, 0)"></g><g transform="translate(0, 150)"></g><line x1="45" x2="365" y1="87.5" y2="87.5" stroke="lightslategray"></line><path d="M49.18276926627231,104.78560294859153C49.18276926627231,104.78560294859153,51.91267190474665,106.23164504311679,52.92438387415046,106.24228031081984C53.61012743167842,106.24948894977098,53.9232033984796,105.71347249425884,54.65704425301564,105.60933798146357C55.83501488380565,105.4421799430875,57.900672152231955,106.20665209993199,59.399076940828465,105.93379863292301C60.87293236114951,105.66541550683782,62.01922244136938,104.34122120296665,63.58184620710077,104.02277514465568C65.37204613005461,103.65795149256792,67.63891060206127,104.55976374102168,69.61538461538461,104.1826264491473C71.68781889946835,103.78717867284557,73.489108596364,102.26750982850179,75.71821571553441,101.57659127883731C78.23522418560732,100.79643682745174,81.21825319422913,100.25989778296459,84.01446155621308,99.91605507389448C86.82057675733974,99.57099414573334,89.6549236189124,100.14083269753286,92.52584215539413,99.51434535684805C95.69444968068125,98.82289679187978,98.85513494985315,96.42639095183807,102.15515310491969,95.63989894334851C105.39916207339547,94.86675558192262,108.7676119159959,95.3307858897962,112.14881118924798,94.78445032371889C115.71976795382432,94.20745366432475,119.38254336468226,93.05995540609209,123.02892311242616,92.17948568191923C126.71853650454602,91.28857658566446,130.4337498956331,90.47227873167462,134.15819863277235,89.46944452309545C137.96163579360592,88.44534212183784,141.75476465571106,87.03694992368759,145.6144699384699,86.0858820175133C149.4692534696514,85.13602687750236,153.39292339189862,84.56377156565394,157.3013519808264,83.765323659612C161.2444391716207,82.95979539187046,165.2190819805327,82.23515131285536,169.1697013995927,81.27262127363201C173.17113433936922,80.29771101376468,177.1576747590616,79.088049025818,181.1570821050169,77.94277921126708C185.18202799736258,76.79019618159246,189.18519835170872,75.36139596610913,193.24290001300815,74.37770509310974C197.2622048780144,73.4033225875604,201.36088486863338,73.05400838232299,205.38645755776105,72.05699383615655C209.4753093208845,71.04430694667057,213.50503795475427,69.49085031739175,217.58405551811092,68.32736087530128C221.6454166057744,67.1689077250959,225.72606464852493,66.1353649543703,229.80725268181405,65.08910003966746C233.8852325998279,64.04365756647614,237.97939078583295,63.09202547478738,242.06152736477236,62.05208239768896C246.1519643117934,61.01002476362829,250.2329727818288,59.892442219853905,254.32494124297233,58.842760795716686C258.41505218311113,57.79355586725926,262.51341148357716,56.78663468299754,266.6077542303275,55.75536862736573C270.7032437453948,54.72381372849048,274.8194334384913,53.83982907719031,278.89443814902063,52.65429434323123C283.0134650390725,51.455952305576666,287.0672117515512,49.780726809320306,291.18850940043836,48.593842992367456C295.26468093726686,47.41995494924302,303.4853250531196,45.56109357554138,303.4853250531196,45.56109357554138" fill="none" stroke="#76b7b2"></path><path d="M49.18276926627231,99.52595955722626C49.18276926627231,99.52595955722626,51.782725530214634,104.80272974117331,52.92438387415046,105.12568288120067C53.53181645309738,105.2975138495178,53.91528303349768,104.51966253475423,54.65704425301564,104.33022656546225C55.828301154928546,104.03110310003223,57.870857114477495,104.1622264236897,59.399076940828465,103.99920730434874C60.8399670330131,103.84550387121374,62.05598348836736,103.50176672463459,63.58184620710077,103.39760492503495C65.40511654779513,103.27314083169829,67.64918258406351,103.88224496518374,69.61538461538461,103.43701751300293C71.70023089884837,102.96492421628736,73.47000728986816,101.1752175528057,75.71821571553441,100.47468424453372C78.21894310308116,99.6954669754029,81.22707188431293,99.56273770464662,84.01446155621308,99.20197990679142C86.82918100967916,98.83768495303977,89.71235684268156,99.27360708248173,92.52584215539413,98.30327856896136C95.76698747051032,97.18545659153365,98.77845834922546,92.99772758584439,102.15515310491969,92.2792853561703C105.33805795941657,91.60207482162348,108.76246321309232,93.8470718932852,112.14881118924798,93.68501361912523C115.71439626508521,93.51437771052117,119.37890077175855,91.92589276771055,123.02892311242616,91.0756283245833C126.71490157481988,90.21698798427983,130.43393983847204,89.50407361954369,134.15819863277235,88.55945932557208C137.96183078530166,87.59471291595418,141.7568887299669,86.24253144852884,145.6144699384699,85.33386105373395C149.47128852834584,84.42537029714539,153.40165219056607,83.95525779898088,157.3013519808264,83.10777836073405C161.25328618386797,82.24894738437352,165.20186520328278,81.16014155507504,169.1697013995927,80.20639822004917C173.15367969348966,79.24877483120422,177.16638286387374,78.42414746054204,181.1570821050169,77.37400553415407C185.1908930647501,76.3125188733037,189.18371762382046,74.80833467988724,193.24290001300815,73.8646038879636C197.26079495293914,72.93047213186729,201.36861109904834,72.72585164320861,205.38645755776105,71.72669141949488C209.4835245344648,70.70783059465265,213.49227922294256,68.91659938594385,217.58405551811092,67.77631008501837C221.6330828339067,66.64793399739871,225.7380639978005,65.92994317595709,229.80725268181405,64.90968882970273C233.8972747686317,63.88421099262289,237.9695511575922,62.67567159467651,242.06152736477236,61.63712051471893C246.1421539956111,60.60144997809048,250.24062753261373,59.71211962375657,254.32494124297233,58.68615474232483C258.4227262205747,57.65680592712097,262.50710905462296,56.492293741172396,266.6077542303275,55.47034074652234C270.6969768184834,54.45123446185369,274.8487656154596,53.86224028800465,278.89443814902063,52.56214265096604C283.0449703175353,51.22834783194026,287.02338849352986,48.71401650595969,291.18850940043836,47.51656875957946C295.2244483127554,46.35626007632701,303.4853250531196,45.400126850776275,303.4853250531196,45.400126850776275L303.4853250531196,45.632332794863586C303.4853250531196,45.632332794863586,295.3021870372511,48.34780123025485,291.18850940043836,49.54453069082575C287.1050092802337,50.732481066995724,282.9926233690519,51.71518550328162,278.89443814902063,52.7910794334617C274.79903809295064,53.86624217633822,270.70744976871606,54.965454539056594,266.6077542303275,55.997726345586074C262.5175982492437,57.027596164953295,258.40997906674465,57.923960843058865,254.32494124297233,58.97801484897722C250.22784887211694,60.03517926517586,246.15266264816674,61.246444464484426,242.06152736477236,62.33245657756526C237.98008403240132,63.41589591426943,233.87667684090337,64.34182360884742,229.80725268181405,65.48682542844753C225.717364952656,66.63758502213265,221.67116418803127,68.08922272533793,217.58405551811092,69.22257034115677C213.53069015099433,70.34656100200547,209.45126924556857,71.2810239031652,205.38645755776105,72.264360510753C201.33755898254606,73.24384750675854,197.27603610727743,74.08352417896171,193.24290001300815,75.11175835719352C189.19950264348913,76.14260861226413,185.17394503265814,77.30885215484344,181.1570821050169,78.44282286800133C177.14960028091528,79.57414527155478,173.17296181780645,80.89850410812164,169.1697013995927,81.90730717434462C165.22085018844896,82.90239937262773,161.24876460407017,83.68413146662405,157.3013519808264,84.46633569308736C153.3972105595322,85.23996546324734,149.45602356158,85.59711332465574,145.6144699384699,86.57944060835032C141.74072918374418,87.56999849368994,137.96710207517748,89.26033740798667,134.15819863277235,90.39902330886395C130.43904536411515,91.51087806030587,126.73585882554464,92.5439807575308,123.02892311242616,93.34985524439371C119.39951317990642,94.13887590548417,115.67073957926144,94.35786749248737,112.14881118924798,95.20577827168194C108.71817780012162,96.03170961042046,105.47110857312136,97.42143772742502,102.15515310491969,98.33618514822979C98.93095192869444,99.2256210101979,95.65758030736997,100.2258110122349,92.52584215539413,100.63940321954544C89.62160859446664,101.02295009055429,86.81388533409074,100.50144111358942,84.01446155621308,100.87635735173646C81.21124084263302,101.25178209912077,78.26533196736338,102.21759660128725,75.71821571553441,102.89283608991812C73.52158226684608,103.47516272912695,71.65366529606167,104.14632403152164,69.61538461538461,104.64668790743605C67.60808799887259,105.13944571290874,65.39303098357435,105.37254471227162,63.58184620710077,105.87982718293657C62.04326791216538,106.3107571514878,60.85829869165717,107.05240114767926,59.399076940828465,107.38095711176203C57.88805858602158,107.72117551381669,55.841839228833656,107.63698911300213,54.65704425301564,107.84890708553309C53.930706418053056,107.97882326892297,53.61617954201863,108.15882745615104,52.92438387415046,108.30172131677739C51.918639518808085,108.50946285147205,49.18276926627231,108.8739395370724,49.18276926627231,108.8739395370724Z" fill="#76b7b2" opacity=".4"></path><g transform="translate(45, 0)"></g><g transform="translate(0, 150)"></g><line x1="45" x2="365" y1="87.5" y2="87.5" stroke="lightslategray"></line><path d="M49.18276926627231,90.7684505281173C49.18276926627231,90.7684505281173,51.91312779101099,90.32328534035214,52.92438387415046,90.18882907824056C53.61057691094226,90.09759308732558,53.93846223747914,90.09254033749232,54.65704425301564,89.99627437250102C55.849413925903065,89.83653670205409,57.869928661647556,89.5160917488775,59.399076940828465,89.25206545682856C60.839026329816896,89.00344045224993,62.05307251229838,88.62593018263901,63.58184620710077,88.46374233642338C65.40228482010569,88.27061171230628,67.85328061844764,89.38809889505642,69.61538461538461,88.31223515053773C72.17536586263088,86.74922240251185,73.1108617466838,77.7603410915599,75.71821571553441,77.13074572335236C78.03224308434582,76.57197965985877,81.09024581206673,81.69288164617302,84.01446155621308,82.77390794833644C86.71604747637393,83.77263228770656,89.61225726229715,83.8570595700746,92.52584215539413,83.72153805923007C95.64782572454511,83.57632316223992,98.91700357894108,82.4143523829419,102.15515310491969,81.73104885864662C105.45686814220335,81.03433195193958,108.74427556788694,80.28714344509248,112.14881118924798,79.57912096209512C115.69592931699606,78.84144638218012,119.38643281139527,78.17327421453138,123.02892311242616,77.39634013585096C126.72244981621054,76.60852012000244,130.42255762246418,75.73399136255702,134.15819863277235,74.88068164351566C137.95028515296286,74.01447842050915,141.78226379615558,73.16920137268534,145.6144699384699,72.23645334330935C149.4962976986828,71.29162755386763,153.38828746904528,70.22537332402953,157.3013519808264,69.24394579319866C161.2398042922341,68.25615080141087,165.20598958824223,67.32203459140383,169.1697013995927,66.32941356844991C173.15780585869913,65.33068396441833,177.1492699834866,64.25925571142545,181.1570821050169,63.26911203888179C185.17361714808672,62.27681333878034,189.21253688527742,61.3713560349837,193.24290001300815,60.38247807891828C197.28898163689357,59.3897434792063,201.33387706844903,58.34246750779952,205.38645755776105,57.32364915228024C209.4475756282959,56.302684449641,213.521825643645,55.32928085951465,217.58405551811092,54.263138917011986C221.66211908579672,53.19284138386868,225.7279524802687,52.012804109350185,229.80725268181405,50.9132534997465C233.8871084274618,49.813553146601976,237.96968435241436,48.696444940656875,242.06152736477236,47.66539998432572C246.14228553962448,46.63714813754635,254.32494124297233,44.73452595759595,254.32494124297233,44.73452595759595" fill="none" stroke="#59a14f"></path><path d="M49.18276926627231,89.28727309597659C49.18276926627231,89.28727309597659,51.93428239401725,88.28844675223827,52.92438387415046,88.42367286785802C53.63400739832898,88.52059185510583,53.907055979584946,89.2077140509545,54.65704425301564,89.366438750549C55.82181450897699,89.61294635009901,57.88180226258479,89.26191819295789,59.399076940828465,88.9805569521803C60.85142622093914,88.71123538413869,62.04297119062127,87.94862062368776,63.58184620710077,87.75276498653986C65.39275755713795,87.52228675245216,67.87077366638397,88.99895599993808,69.61538461538461,87.94791522262967C72.26411041756361,86.35219049810375,72.90632043479853,76.4967669597706,75.71821571553441,75.44286815951662C77.98035449944716,74.59501818206309,81.25613701563928,77.6544075479812,84.01446155621308,78.94635840552762C86.85913003371489,80.27875124940203,89.52144807683939,82.89990734863723,92.52584215539413,83.33957627809271C95.56450745032515,83.78426052465416,98.92650964287652,82.23888093227521,102.15515310491969,81.52888267388994C105.46651980811514,80.80069307358765,108.73776129891986,79.78663681143834,112.14881118924798,79.00844103115817C115.68950125402328,78.20066918487097,119.37856944922378,77.49820998584276,123.02892311242616,76.78537538852171C126.71457237737161,76.06564832861288,130.43976706111405,75.56921356402128,134.15819863277235,74.7123992377258C137.96785190946804,73.83456527929812,141.76247094919964,72.49418540338816,145.6144699384699,71.55672312391535C149.47667894469535,70.61677602920896,153.39793702137695,69.97460853872074,157.3013519808264,69.08199335577179C161.24950132189525,68.1791485178545,165.20810192566333,67.17563849115055,169.1697013995927,66.1656608409247C173.15993242639607,65.14838380854668,177.14549153780843,63.99314405998485,181.1570821050169,62.9985813319539C185.1698815534195,62.00371889532657,189.21259282806065,61.15899008658206,193.24290001300815,60.197495892492356C197.28903792158417,59.232225026263656,201.3353233098784,58.22208348846079,205.38645755776105,57.21762970971456C209.44902326471143,56.21034157111881,213.54777452116065,55.39790879335317,217.58405551811092,54.16208084103461C221.68905552643355,52.90521251140492,225.69235976394174,50.93187438761565,229.80725268181405,49.71715307765514C233.85286904305187,48.5228822900543,237.97455540213173,47.83162030122014,242.06152736477236,46.908368887095605C246.14711975011295,45.985429120984485,254.32494124297233,44.17855319189701,254.32494124297233,44.17855319189701L254.32494124297233,45.13569828371564C254.32494124297233,45.13569828371564,246.14628722397705,47.123232066636916,242.06152736477236,48.14496065236656C237.9737198251002,49.16745156008354,233.8872081045999,50.21031601701263,229.80725268181405,51.268440245193744C225.72805260054685,52.32636857781257,221.66001257496657,53.44856450347699,217.58405551811092,54.49309949235135C213.51973864758423,55.534651480735754,209.44492842495745,56.49357908056982,205.38645755776105,57.52722050303386C201.33122170789463,58.560038007321815,197.2898453075877,59.670625437874214,193.24290001300815,60.69236981696455C189.21339462564293,61.70971109053431,185.17928848359395,62.67879131952229,181.1570821050169,63.645336763078475C177.154952673787,64.60705767001161,173.1513075960655,65.50043300145127,169.1697013995927,66.47769994197998C165.19947856171558,67.45217288946196,161.23450278865613,68.4369381200893,157.3013519808264,69.49998865812672C153.3829306570918,70.55905811667918,149.51251490488983,71.92576496965529,145.6144699384699,72.84281248290534C141.79803028972051,73.74066166615087,137.92540355596086,74.06008381389131,134.15819863277235,74.96919304895498C130.3970536684554,75.87683988293176,126.74495371995978,77.4343723511092,123.02892311242616,78.29114886737626C119.40817372158816,79.12595712839253,115.69447781008793,79.45111417733698,112.14881118924798,80.08199751355119C108.74281306765285,80.68802952046957,105.4481179705011,81.29167422314508,102.15515310491969,81.99403267882934C98.90818962687523,82.68657947091297,95.64290392622718,83.59059037035054,92.52584215539413,84.26130205337881C89.60744778752756,84.8892656107673,86.70280859847492,86.54311087469756,84.01446155621308,85.92154420404694C81.07064644514165,85.24091133602995,78.09335546110032,79.24635527817078,75.71821571553441,79.65293617067698C73.26890873733261,80.07221314967497,72.04111717042878,87.40696812638369,69.61538461538461,88.87408918735721C67.81890876171126,89.96062593477149,65.41132302132802,89.37073915483371,63.58184620710077,89.49016460322997C62.06222410629423,89.58936320983177,60.79812490782852,89.25875140520691,59.399076940828465,89.60989205103547C57.82446891122457,90.0050957134428,55.85227462396406,91.95485034681376,54.65704425301564,91.9782300343849C53.941249044482795,91.99223157647015,53.62235586321256,91.24351973559477,52.92438387415046,91.19597897785962C51.92436875695704,91.12786524670278,49.18276926627231,92.30463904025241,49.18276926627231,92.30463904025241Z" fill="#59a14f" opacity=".4"></path><g transform="translate(45, 0)"></g><g transform="translate(0, 150)"></g><line x1="45" x2="365" y1="87.5" y2="87.5" stroke="lightslategray"></line><path d="M49.18276926627231,72.75783706402916C49.18276926627231,72.75783706402916,52.01792147871132,73.20974872040486,52.92438387415046,72.5982048770464C53.88308456199821,71.95141852801886,53.69350104236457,69.11706177398382,54.65704425301564,68.78422746451616C55.745324977112006,68.40830538929669,57.87232720003751,71.26498176937717,59.399076940828465,71.24808700401591C60.84146627930601,71.23212575720375,62.01834714348426,69.14320129920146,63.58184620710077,68.95586399454596C65.37132473911825,68.74144999665612,67.65082833275477,70.83760688945749,69.61538461538461,70.57912776049463C71.70227197838307,70.30455337817693,73.45931677596651,67.35109758705107,75.71821571553441,67.04867289986494C78.21025092399525,66.71503558870671,81.26806015441069,69.45249986490917,84.01446155621308,69.24034964700733C86.87217480257073,69.01960096565364,89.53282635378343,66.08608233447232,92.52584215539413,65.51608206465266C95.57393360508077,64.93559299813273,98.95364309767388,66.30235097488558,102.15515310491969,65.8636943040239C105.495364012142,65.40603345235647,108.71562467991696,63.500979808524775,112.14881118924798,62.679862360603636C115.66835386956329,61.838091051164014,119.37473961495029,61.40009850519575,123.02892311242616,60.91172883650859C126.71078424703258,60.419660142174536,130.45106135964042,60.448611708980295,134.15819863277235,59.743155012346456C137.9797412516711,59.01592733412883,141.76426772292973,57.52101235919229,145.6144699384699,56.55427347398181C149.47842709409863,55.58408089083469,153.39682155420613,54.86360757891214,157.3013519808264,53.93442681596617C161.24837055805838,52.99513493391293,165.19972052645133,51.910339104296874,169.1697013995927,50.94518603555332C173.15154756943568,49.97714836159655,177.1525337592866,49.0687738758292,181.1570821050169,48.13541600571625C185.1768665517756,47.198506989861784,193.24290001300815,45.334459301928774,193.24290001300815,45.334459301928774" fill="none" stroke="#edc949"></path><path d="M49.18276926627231,72.0655837065903C49.18276926627231,72.0655837065903,52.01443284167258,72.9881195174627,52.92438387415046,72.25630152870988C54.45023052325758,71.02915634612346,53.55676039792497,62.04433406665866,54.65704425301564,61.865407973795506C55.73551355710395,61.69002932222248,57.87758106652323,70.81693957763675,59.399076940828465,70.80651960030637C60.84692429969518,70.79660400545528,61.89758177588409,62.835655258500125,63.58184620710077,62.651999583659986C65.2935065221978,62.465356605016076,67.65511260762598,70.03282940112226,69.61538461538461,69.94499087905548C71.70765587312559,69.85123755588637,73.34776755980873,61.331843433842145,75.71821571553441,61.05529238360791C78.13437079887065,60.77340888229133,81.25280637117105,68.62932091872122,84.01446155621308,68.58351112944004C86.8555679815226,68.53638341872009,89.43224007654665,60.75544304738927,92.52584215539413,60.32906255562225C95.49875793463725,59.919315839778356,98.96369683433363,65.70079261578225,102.15515310491969,65.54150977154579C105.50656835586669,65.37424351184228,108.57094389723397,60.046612069561526,112.14881118924798,58.76471393977366C115.55232090923846,57.54528560756332,119.39083599145425,57.61976427253051,123.02892311242616,57.75881284719827C126.726920481523,57.900151206121556,130.49470902458526,60.133715534994145,134.15819863277235,59.65312872576702C138.0285986730336,59.145398827577914,141.6979156694051,55.642422151573484,145.6144699384699,54.40638415337618C149.41786947993336,53.2060570207465,153.41880193548124,53.21039428988806,157.3013519808264,52.25641127168668C161.27114003262687,51.280992965922195,165.16436081684475,49.43278983324054,169.1697013995927,48.58582557975004C173.11767089665716,47.7509929434726,177.16796833174388,47.8322165946134,181.1570821050169,47.17888973181064C185.1925239236798,46.51797538008812,193.24290001300815,44.63018164241417,193.24290001300815,44.63018164241417L193.24290001300815,45.59972988310473C193.24290001300815,45.59972988310473,185.1750765287659,47.621055389207676,181.1570821050169,48.65719963838171C177.15073844118274,49.69033943642636,173.16155508417782,50.80976509003944,169.1697013995927,51.807286904020756C165.20970768217614,52.796847250785426,161.2439962999277,53.70231503238385,157.3013519808264,54.620950527356456C153.39248230920973,55.53171653487387,149.4903717767709,56.406239737601055,145.6144699384699,57.296476725602346C141.77637022143279,58.1780311287555,137.95597987540447,59.12731948450531,134.15819863277235,59.93641816985776C130.4282064065599,60.731074737415,126.71831633413215,61.39979557308775,123.02892311242616,62.115266019441634C119.38232355119952,62.82243764874772,115.69863472846075,63.525048614098324,112.14881118924798,64.20509250185644C108.74698841883698,64.85678370754587,105.46012332751853,65.53904075087017,102.15515310491969,66.11452871285175C98.92023460344957,66.67781870646738,95.62088251942282,66.98117690352016,92.52584215539413,67.6291006810444C89.58514253862147,68.2447143662189,86.85715231845575,69.50011183561864,84.01446155621308,69.86340253184338C81.25429182962074,70.21614719017585,78.24949520732733,69.49447783606587,75.71821571553441,69.84268609864043C73.50493567046719,70.14714967193707,71.65952008871453,71.15345590506799,69.61538461538461,71.57055839903954C67.61365876378126,71.97900727918692,65.40777216040192,72.36334004639961,63.58184620710077,72.33890964396552C62.058676839901786,72.31853004393372,60.83075801785008,71.63043443133431,59.399076940828465,71.69209447176517C57.86156163374793,71.75831261037108,55.853901167885454,72.65643606782942,54.65704425301564,72.85006731196222C53.94280096250307,72.96561981889705,53.611225415382265,72.92601214874568,52.92438387415046,72.99120997544661C51.91378187199877,73.08714047796357,49.18276926627231,73.3968845965107,49.18276926627231,73.3968845965107Z" fill="#edc949" opacity=".4"></path><g transform="translate(45, 0)"></g><g transform="translate(0, 150)"></g><line x1="45" x2="365" y1="87.5" y2="87.5" stroke="lightslategray"></line><path d="M49.18276926627231,48.689592834002156C49.18276926627231,48.689592834002156,51.91218423037563,48.18485385382699,52.92438387415046,48.05420184762218C53.60964888272048,47.96574968435354,53.93811370052203,47.885738860315534,54.65704425301564,47.90042056806286C55.84906147521034,47.9247634596333,57.8654224623602,48.37524315723519,59.399076940828465,48.51729461045636C60.83452721054844,48.650250109692465,62.060186942876165,48.747094305124854,63.58184620710077,48.7490840715427C65.4092763147874,48.751473672910556,67.61113200707142,48.716144065486915,69.61538461538461,48.430559116306746C71.65684810524374,48.13967200727348,73.5129776787438,47.31478045666838,75.71821571553441,46.99949685825494C78.25703612694016,46.636520879390346,81.24041506353495,46.86487448843942,84.01446155621308,46.55367714853543C86.8426172140475,46.236409748772864,92.52584215539413,45.094888573143706,92.52584215539413,45.094888573143706" fill="none" stroke="#af7aa1"></path><path d="M49.18276926627231,47.80520213105472C49.18276926627231,47.80520213105472,51.91503071319841,47.9946083726199,52.92438387415046,47.96865089696443C53.61247560108067,47.950955282642795,53.93640713957608,47.81873038489368,54.65704425301564,47.80341339209577C55.84735250871131,47.77811363631052,57.8705962645464,47.912995270028,59.399076940828465,48.052958698044165C60.83970226142229,48.1848771851314,62.05695282153883,48.52677474057339,63.58184620710077,48.60003945007651C65.40606832398487,48.687685645363416,67.61408854713906,48.682280053323765,69.61538461538461,48.39459114886468C71.65997731667335,48.10067829727221,73.51008490332863,47.17444094537643,75.71821571553441,46.8264721645953C78.25430038106926,46.42682270354624,81.23983993158694,46.63732530780632,84.01446155621308,46.31901296400204C86.84202738266843,45.99462671346196,92.52584215539413,44.88113627156367,92.52584215539413,44.88113627156367L92.52584215539413,45.289698779138334C92.52584215539413,45.289698779138334,86.84290498807698,46.44329192072442,84.01446155621308,46.75029511082521C81.24069531885036,47.0513635620698,78.25811298333281,46.79368812139307,75.71821571553441,47.13457377716567C73.51410873544688,47.43039221944124,71.65537126374586,48.21138873748192,69.61538461538461,48.50277009521072C67.60972422948073,48.78924846351622,65.41016387556478,48.8240916883355,63.58184620710077,48.884639617309716C62.061072846894724,48.93500268002464,60.83172878466154,49.016972348801076,59.399076940828465,48.89719824952175C57.86256361970348,48.76874101138631,55.85122335543997,48.16686846906956,54.65704425301564,48.08407139007497C53.9402335485609,48.034372117662286,53.59543842146773,47.99047816835812,52.92438387415046,48.13845052021378C51.89653855280079,48.36509780269172,49.18276926627231,49.732273321704746,49.18276926627231,49.732273321704746Z" fill="#af7aa1" opacity=".4"></path><g transform="translate(45, 0)" fill="none" font-size="10" font-family="sans-serif" text-anchor="end"><path class="domain" stroke="currentColor" d="M-6,150.5H0.5V25.5H-6"></path><g class="tick" opacity="1" transform="translate(0,150.5)"><line stroke="currentColor" x2="-6"></line><text fill="currentColor" x="-9" dy="0.32em" font-family="Courier Prime">1e-1</text></g><g class="tick" opacity="1" transform="translate(0,129.66666666666666)"><line stroke="currentColor" x2="-6"></line><text fill="currentColor" x="-9" dy="0.32em" font-family="Courier Prime">1e+0</text></g><g class="tick" opacity="1" transform="translate(0,108.83333333333333)"><line stroke="currentColor" x2="-6"></line><text fill="currentColor" x="-9" dy="0.32em" font-family="Courier Prime">1e+1</text></g><g class="tick" opacity="1" transform="translate(0,88)"><line stroke="currentColor" x2="-6"></line><text fill="currentColor" x="-9" dy="0.32em" font-family="Courier Prime">1e+2</text></g><g class="tick" opacity="1" transform="translate(0,67.16666666666667)"><line stroke="currentColor" x2="-6"></line><text fill="currentColor" x="-9" dy="0.32em" font-family="Courier Prime">1e+3</text></g><g class="tick" opacity="1" transform="translate(0,46.33333333333333)"><line stroke="currentColor" x2="-6"></line><text fill="currentColor" x="-9" dy="0.32em" font-family="Courier Prime">1e+4</text></g><g class="tick" opacity="1" transform="translate(0,25.5)"><line stroke="currentColor" x2="-6"></line><text fill="currentColor" x="-9" dy="0.32em" font-family="Courier Prime">1e+5</text></g><text x="-5" y="15" fill="black" font-size="1.5em" font-family="Courier Prime">t/ms</text><line y1="25" y2="15" x1="0.5" x2="0.5" stroke="black" marker-end="url(#arrow)"></line></g><g transform="translate(0, 150)" fill="none" font-size="10" font-family="sans-serif" text-anchor="middle"><path class="domain" stroke="currentColor" d="M45.5,6V0.5H365.5V6"></path><g class="tick" opacity="1" transform="translate(45.5,0)"><line stroke="currentColor" y2="6"></line><text fill="currentColor" y="0" dy=".35em" x="9" transform="rotate(60)" font-family="Courier Prime" style="text-anchor: start;">16</text></g><g class="tick" opacity="1" transform="translate(70.11538461538461,0)"><line stroke="currentColor" y2="6"></line><text fill="currentColor" y="0" dy=".35em" x="9" transform="rotate(60)" font-family="Courier Prime" style="text-anchor: start;">32</text></g><g class="tick" opacity="1" transform="translate(94.73076923076923,0)"><line stroke="currentColor" y2="6"></line><text fill="currentColor" y="0" dy=".35em" x="9" transform="rotate(60)" font-family="Courier Prime" style="text-anchor: start;">64</text></g><g class="tick" opacity="1" transform="translate(119.34615384615384,0)"><line stroke="currentColor" y2="6"></line><text fill="currentColor" y="0" dy=".35em" x="9" transform="rotate(60)" font-family="Courier Prime" style="text-anchor: start;">128</text></g><g class="tick" opacity="1" transform="translate(143.96153846153848,0)"><line stroke="currentColor" y2="6"></line><text fill="currentColor" y="0" dy=".35em" x="9" transform="rotate(60)" font-family="Courier Prime" style="text-anchor: start;">256</text></g><g class="tick" opacity="1" transform="translate(168.5769230769231,0)"><line stroke="currentColor" y2="6"></line><text fill="currentColor" y="0" dy=".35em" x="9" transform="rotate(60)" font-family="Courier Prime" style="text-anchor: start;">512</text></g><g class="tick" opacity="1" transform="translate(193.1923076923077,0)"><line stroke="currentColor" y2="6"></line><text fill="currentColor" y="0" dy=".35em" x="9" transform="rotate(60)" font-family="Courier Prime" style="text-anchor: start;">1,024</text></g><g class="tick" opacity="1" transform="translate(217.80769230769235,0)"><line stroke="currentColor" y2="6"></line><text fill="currentColor" y="0" dy=".35em" x="9" transform="rotate(60)" font-family="Courier Prime" style="text-anchor: start;">2,048</text></g><g class="tick" opacity="1" transform="translate(242.4230769230769,0)"><line stroke="currentColor" y2="6"></line><text fill="currentColor" y="0" dy=".35em" x="9" transform="rotate(60)" font-family="Courier Prime" style="text-anchor: start;">4,096</text></g><g class="tick" opacity="1" transform="translate(267.03846153846155,0)"><line stroke="currentColor" y2="6"></line><text fill="currentColor" y="0" dy=".35em" x="9" transform="rotate(60)" font-family="Courier Prime" style="text-anchor: start;">8,192</text></g><g class="tick" opacity="1" transform="translate(291.6538461538461,0)"><line stroke="currentColor" y2="6"></line><text fill="currentColor" y="0" dy=".35em" x="9" transform="rotate(60)" font-family="Courier Prime" style="text-anchor: start;">16,384</text></g><g class="tick" opacity="1" transform="translate(316.2692307692308,0)"><line stroke="currentColor" y2="6"></line><text fill="currentColor" y="0" dy=".35em" x="9" transform="rotate(60)" font-family="Courier Prime" style="text-anchor: start;">32,768</text></g><g class="tick" opacity="1" transform="translate(340.88461538461536,0)"><line stroke="currentColor" y2="6"></line><text fill="currentColor" y="0" dy=".35em" x="9" transform="rotate(60)" font-family="Courier Prime" style="text-anchor: start;">65,536</text></g><g class="tick" opacity="1" transform="translate(365.5,0)"><line stroke="currentColor" y2="6"></line><text fill="currentColor" y="0" dy=".35em" x="9" transform="rotate(60)" font-family="Courier Prime" style="text-anchor: start;">131,072</text></g><text x="390" y="15" fill="black" font-size="1.5em" font-family="Courier Prime">N</text><line x1="365" x2="380" y1="0.5" y2="0.5" stroke="black" marker-end="url(#arrow)"></line></g></svg>